<?xml version="1.0" encoding="utf-8"?>
<!-- Generator: Adobe Illustrator 25.4.1, SVG Export Plug-In . SVG Version: 6.00 Build 0)  -->
<svg version="1.1" id="Warstwa_1" xmlns="http://www.w3.org/2000/svg" xmlns:xlink="http://www.w3.org/1999/xlink" x="0px" y="0px"
	 viewBox="0 0 1920 1080" style="enable-background:new 0 0 1920 1080;" xml:space="preserve">
<style type="text/css">
	.st0{fill:#FEFEFE;}
</style>
<g>
	<path class="st0" d="M796.58,744.52c-12.76,0-25.53-0.1-38.29,0.08c-2.7,0.04-3.29-0.48-3.29-3.25
		c0.09-106.77,0.08-213.54,0.08-320.32c0-27.66,0.04-55.31-0.07-82.97c-0.01-2.49,0.57-3.05,3.06-3.05
		c134.56,0.07,269.13,0.07,403.69-0.01c2.43,0,2.86,0.55,2.84,2.88c-0.13,13.43-0.07,26.86-0.07,40.29
		c-2.1-0.23-1.78-2.05-2.08-3.34c-5.51-23.56-23.46-37.8-47.72-37.81c-29.66-0.01-59.32-0.01-88.99,0
		c-28.08,0.01-48.4,20.31-48.42,48.35c-0.02,29.79-0.02,59.59,0,89.38c0.02,28.01,20.37,48.3,48.46,48.31
		c29.8,0.01,59.59,0.01,89.39,0c23.22-0.01,41.15-13.9,46.97-36.28c0.39-1.51,0.07-3.62,2.39-4.07c0,38.58,0,77.15,0,115.73
		c-2.11-0.22-1.77-2.06-2.07-3.34c-5.45-23.5-23.45-37.81-47.68-37.82c-29.78-0.01-59.55-0.02-89.33,0
		c-27.72,0.02-48.12,20.44-48.14,48.17c-0.02,29.91-0.02,59.82,0,89.73c0.01,23.18,13.95,41.15,36.29,46.93
		c1.51,0.39,3.62,0.05,4.06,2.38c-38.31,0-76.62,0-114.94,0c0.23-2.1,2.05-1.78,3.34-2.08c22.81-5.36,37-23.19,37.01-46.62
		c0.01-30.33,0.02-60.66,0-90.99c-0.02-27.34-20.1-47.5-47.35-47.51c-30.46-0.02-60.92-0.02-91.39,0
		c-27.07,0.02-47.28,20.16-47.3,47.15c-0.03,30.6-0.02,61.19,0,91.79c0.01,22.36,13.87,40.22,35.48,45.87
		C794.03,742.52,796.14,742.2,796.58,744.52z"/>
	<path d="M796.58,744.52c-6.1-2-12.42-3.33-17.95-6.9c-14.2-9.16-22.36-22.1-22.59-38.96c-0.44-32.19-0.41-64.38-0.04-96.57
		c0.29-25.06,20.87-45.55,45.96-45.82c32.06-0.35,64.12-0.35,96.17,0c25.26,0.27,45.76,20.89,46.01,46.2
		c0.32,31.92,0.29,63.85,0,95.78c-0.21,23.08-17.44,42.29-40.12,45.6c-0.53,0.08-1.05,0.09-1.29,0.68
		C867.35,744.52,831.97,744.52,796.58,744.52z"/>
	<path d="M1017.67,744.52c-6.15-1.86-12.47-3.23-18.03-6.74c-14.8-9.34-23.13-22.7-23.34-40.18c-0.39-31.5-0.35-63.02-0.04-94.52
		c0.26-25.71,21.11-46.57,46.82-46.83c31.5-0.32,63.02-0.29,94.52-0.01c23.5,0.21,42.91,17.68,46.31,40.88
		c0.07,0.46,0.41,0.88,0.62,1.32c0,34.85,0,69.7,0,104.56c-1.83,17.95-11.84,29.96-27.43,38.02c-4.71,2.44-9.82,2.76-14.88,3.48
		C1087.38,744.52,1052.53,744.52,1017.67,744.52z"/>
	<path d="M1164.53,482.73c-1.89,6.28-3.33,12.7-6.95,18.36c-9.27,14.47-22.42,22.74-39.56,22.98c-31.77,0.44-63.55,0.4-95.32,0.04
		c-25.28-0.29-46.12-21.12-46.41-46.39c-0.36-31.77-0.36-63.55,0-95.32c0.29-25.28,21.12-46.12,46.39-46.41
		c31.77-0.36,63.55-0.34,95.32-0.01c23.23,0.24,42.53,17.81,45.91,40.86c0.07,0.46,0.41,0.88,0.62,1.32
		C1164.53,413.02,1164.53,447.87,1164.53,482.73z"/>
	<path class="st0" d="M1122.23,744.52c8.02-1.78,15.79-4.1,22.49-9.16c10.42-7.87,16.97-18.09,19.11-31.04
		c0.08-0.46,0.46-0.87,0.7-1.3c0,13.04-0.05,26.07,0.05,39.11c0.02,2-0.45,2.46-2.45,2.45
		C1148.84,744.47,1135.53,744.52,1122.23,744.52z"/>
	<path d="M944.24,430.01c0,15.16,0.02,30.32-0.01,45.49c-0.05,28.2-20.59,48.7-48.85,48.73c-30.19,0.03-60.38,0.03-90.57,0
		c-28.47-0.03-48.91-20.52-48.93-49.05c-0.02-30.06-0.02-60.12,0-90.17c0.02-28.73,20.46-49.11,49.25-49.13
		c29.93-0.02,59.85-0.01,89.78,0c28.99,0.01,49.31,20.39,49.33,49.45C944.25,400.22,944.24,415.12,944.24,430.01z"/>
	<path class="st0" d="M912.32,650.47c0,14.9,0.01,29.79,0,44.69c-0.01,11.37-6.08,17.42-17.49,17.43c-29.79,0.01-59.59,0.01-89.38,0
		c-11.66,0-17.63-6-17.63-17.69c-0.01-29.79-0.01-59.59,0-89.38c0.01-11.37,6.08-17.42,17.49-17.43c29.79-0.01,59.59-0.01,89.38,0
		c11.66,0,17.62,6,17.63,17.69C912.33,620.68,912.32,635.57,912.32,650.47z"/>
	<path class="st0" d="M1070.75,588.08c14.75,0,29.51-0.02,44.26,0.01c11.05,0.02,17.57,6.53,17.58,17.59
		c0.02,29.77,0.02,59.55,0,89.33c-0.01,11.05-6.53,17.57-17.59,17.58c-29.78,0.02-59.55,0.02-89.33,0
		c-11.05-0.01-17.57-6.53-17.58-17.59c-0.02-29.78-0.02-59.55,0-89.33c0.01-11.05,6.53-17.56,17.59-17.58
		C1040.71,588.06,1055.73,588.08,1070.75,588.08z"/>
	<path class="st0" d="M1008.09,429.89c0-14.75-0.01-29.51,0-44.26c0.01-11.33,6.46-17.82,17.74-17.83c29.64-0.02,59.29-0.02,88.93,0
		c11.33,0.01,17.82,6.46,17.83,17.74c0.02,29.64,0.02,59.28,0,88.93c-0.01,11.33-6.46,17.82-17.74,17.83
		c-29.64,0.02-59.29,0.02-88.93,0c-11.33-0.01-17.81-6.46-17.83-17.74C1008.08,459.67,1008.09,444.78,1008.09,429.89z"/>
	<path class="st0" d="M850.06,492.3c-14.9,0-29.79,0.01-44.69,0c-11.46-0.01-17.56-6.02-17.56-17.36c-0.02-29.93-0.02-59.85,0-89.78
		c0.01-11.34,6.1-17.36,17.56-17.36c29.79-0.01,59.59-0.01,89.38,0c11.61,0,17.56,6.03,17.57,17.76c0.01,29.66,0.01,59.32,0,88.98
		c0,11.87-5.97,17.76-17.96,17.77C879.59,492.31,864.82,492.3,850.06,492.3z"/>
</g>
</svg>
